<svg id="6b10d2f3-2d6a-4c00-83ef-9df2cf539bf4" data-name="Layer 1" xmlns="http://www.w3.org/2000/svg" width="92.73" height="92.73" viewBox="0 0 92.73 92.73"><defs><style>.\32 0b0fd48-9919-4cf4-aedd-eba6f89138db{fill:none;stroke-width:6px;}.\32 0b0fd48-9919-4cf4-aedd-eba6f89138db,.\33 d6f5282-0b79-479d-8e04-a16d07cbafe4{stroke:#ffffff;stroke-miterlimit:10;}.\33 d6f5282-0b79-479d-8e04-a16d07cbafe4{stroke-width:3px;}</style></defs><title>Untitled-2</title><g id="6284c0e3-4686-4a6f-99e7-2c0010d9e8a0" data-name="blank-check-cheque"><polygon class="20b0fd48-9919-4cf4-aedd-eba6f89138db" points="88.67 46.37 84.14 51.34 87.24 57.32 81.57 60.95 83.01 67.52 76.59 69.56 76.28 76.28 69.56 76.59 67.52 83.01 60.95 81.57 57.31 87.24 51.34 84.14 46.37 88.67 41.39 84.14 35.41 87.24 31.78 81.57 25.2 83.01 23.17 76.59 16.45 76.28 16.14 69.56 9.72 67.52 11.15 60.95 5.49 57.32 8.59 51.34 4.06 46.37 8.59 41.39 5.49 35.41 11.15 31.78 9.72 25.21 16.14 23.17 16.45 16.45 23.17 16.14 25.21 9.72 31.78 11.16 35.41 5.49 41.39 8.59 46.37 4.06 51.34 8.59 57.32 5.49 60.95 11.16 67.52 9.72 69.56 16.14 76.28 16.45 76.59 23.18 83.01 25.21 81.57 31.78 87.24 35.41 84.14 41.39 88.67 46.37"/></g><polygon class="3d6f5282-0b79-479d-8e04-a16d07cbafe4" points="39.22 58.54 28.15 47.47 29.21 46.34 39.22 56.36 61.28 34.3 62.34 35.42 39.22 58.54"/></svg>